<svg viewBox="0 0 32 32" xmlns="http://www.w3.org/2000/svg">
  <rect width="32" height="32" rx="6" fill="#0a0a0a"/>
  <g transform="translate(16,16)" fill="#e11d48">
    <g>
      <rect x="-1.4" y="-13" width="2.8" height="8" rx="1.4"/>
      <rect x="-1.4" y="-13" width="2.8" height="8" rx="1.4" transform="rotate(30)"/>
      <rect x="-1.4" y="-13" width="2.8" height="8" rx="1.4" transform="rotate(60)"/>
      <rect x="-1.4" y="-13" width="2.8" height="8" rx="1.4" transform="rotate(90)"/>
      <rect x="-1.4" y="-13" width="2.8" height="8" rx="1.4" transform="rotate(120)"/>
      <rect x="-1.4" y="-13" width="2.8" height="8" rx="1.4" transform="rotate(150)"/>
      <rect x="-1.4" y="-13" width="2.8" height="8" rx="1.4" transform="rotate(180)"/>
      <rect x="-1.4" y="-13" width="2.8" height="8" rx="1.4" transform="rotate(210)"/>
      <rect x="-1.4" y="-13" width="2.8" height="8" rx="1.4" transform="rotate(240)"/>
      <rect x="-1.4" y="-13" width="2.8" height="8" rx="1.4" transform="rotate(270)"/>
      <rect x="-1.4" y="-13" width="2.8" height="8" rx="1.4" transform="rotate(300)"/>
      <rect x="-1.4" y="-13" width="2.8" height="8" rx="1.4" transform="rotate(330)"/>
    </g>
    <circle r="2"/>
  </g>
</svg>
